<svg xmlns="http://www.w3.org/2000/svg" viewBox="0 0 600 800" fill="none">
  <rect width="600" height="800" fill="#0E3954"></rect>
  
  <circle cx="450" cy="200" r="200" fill="#2A8FB7" opacity="0.25"></circle>
  
  <g fill="#FBF8F1">
    
    <g transform="translate(180 480)">
      <ellipse cx="100" cy="90" rx="160" ry="6" fill="#0B2A3E" opacity="0.4"></ellipse>
      <rect x="-10" y="60" width="220" height="20" rx="6"></rect>
      
      <path d="M0 50 Q -10 30, 10 22 L 200 22 Q 220 32, 210 56 Z" fill="#FBF8F1"></path>
      <circle cx="0" cy="32" r="14"></circle>
    </g>
    
    <g transform="translate(360 360)">
      
      <path d="M-40 200 L -30 130 L 10 130 L 0 200 Z"></path>
      <path d="M40 200 L 80 200 L 90 150 L 50 130 Z"></path>
      
      <path d="M-20 130 Q -30 60, 0 40 Q 50 50, 60 120 L 30 130 Z"></path>
      
      <path d="M-10 100 Q -50 130, -90 170 L -82 178 Q -42 142, -2 112 Z"></path>
      <path d="M40 100 Q 0 130, -40 170 L -32 178 Q 8 142, 48 112 Z"></path>
      
      <circle cx="14" cy="20" r="22"></circle>
    </g>
  </g>
</svg>